<?xml version="1.0" encoding="UTF-8" standalone="no"?>
<!-- Created with Inkscape (http://www.inkscape.org/) -->

<svg
   xmlns:dc="http://purl.org/dc/elements/1.1/"
   xmlns:cc="http://creativecommons.org/ns#"
   xmlns:rdf="http://www.w3.org/1999/02/22-rdf-syntax-ns#"
   xmlns:svg="http://www.w3.org/2000/svg"
   xmlns="http://www.w3.org/2000/svg"
   xmlns:sodipodi="http://sodipodi.sourceforge.net/DTD/sodipodi-0.dtd"
   xmlns:inkscape="http://www.inkscape.org/namespaces/inkscape"
   width="201.83928mm"
   height="125.24333mm"
   viewBox="0 0 201.83928 125.24333"
   version="1.1"
   id="svg8"
   inkscape:version="0.92.2 (5c3e80d, 2017-08-06)"
   sodipodi:docname="dibujo.svg.svg">
  <defs
     id="defs2" />
  <sodipodi:namedview
     id="base"
     pagecolor="#ffffff"
     bordercolor="#666666"
     borderopacity="1.0"
     inkscape:pageopacity="0.0"
     inkscape:pageshadow="2"
     inkscape:zoom="0.88273849"
     inkscape:cx="-12.547336"
     inkscape:cy="170.88361"
     inkscape:document-units="mm"
     inkscape:current-layer="layer1"
     showgrid="false"
     showguides="false"
     inkscape:window-width="1920"
     inkscape:window-height="1017"
     inkscape:window-x="-8"
     inkscape:window-y="-8"
     inkscape:window-maximized="1"
     inkscape:snap-global="false" />
  <metadata
     id="metadata5">
    <rdf:RDF>
      <cc:Work
         rdf:about="">
        <dc:format>image/svg+xml</dc:format>
        <dc:type
           rdf:resource="http://purl.org/dc/dcmitype/StillImage" />
        <dc:title></dc:title>
      </cc:Work>
    </rdf:RDF>
  </metadata>
  <g
     inkscape:label="Capa 1"
     inkscape:groupmode="layer"
     id="layer1"
     transform="translate(-4.9136906,-4.4464283)">
    <path
       id="rect3728"
       transform="scale(0.26458333)"
       style="stroke-width:0.99999994"
       d="m 399.73438,354.48242 c -0.49292,0.25468 -0.96399,0.49374 -1.45899,0.75 0.44918,0.41805 0.87116,0.84701 1.25977,1.29102 0.0639,-0.67909 0.13372,-1.36117 0.19922,-2.04102 z"
       inkscape:connector-curvature="0" />
    <path
       id="rect3781"
       transform="scale(0.26458333)"
       style="fill:#aa0000;stroke-width:0.99999994"
       d="m 52.363281,199.66211 c -0.04587,0.13539 -0.09704,0.26878 -0.142578,0.4043 0.473249,-0.13834 0.944921,-0.26707 1.417969,-0.4043 z"
       inkscape:connector-curvature="0" />
    <path
       id="rect3783"
       transform="scale(0.26458333)"
       style="fill:#aa0000;stroke-width:0.99999994"
       d="m 187.14258,318.25195 c -0.0814,0.41122 -0.15842,0.82325 -0.24024,1.23438 0.0969,2.22397 0.15572,3.60361 0.24024,5.55273 z"
       inkscape:connector-curvature="0" />
    <path
       id="rect3802"
       transform="scale(0.26458333)"
       style="fill:#aa0000;stroke-width:0.99999994"
       d="m 169.59961,484.82422 c -0.0334,0.56076 -0.082,1.27878 -0.11133,1.79297 0.29741,-0.59122 0.58957,-1.1851 0.88477,-1.77735 -0.23969,-0.009 -0.52771,-0.008 -0.77344,-0.0156 z"
       inkscape:connector-curvature="0" />
    <path
       id="rect3804"
       transform="scale(0.26458333)"
       style="fill:#aa0000;stroke-width:0.99999994"
       d="m 41.757812,488.86133 c -0.109866,0.1362 -0.220209,0.27199 -0.330078,0.4082 v 0.89649 c 0.111121,-0.43461 0.218723,-0.87015 0.330078,-1.30469 z"
       inkscape:connector-curvature="0" />
    <rect
       style="fill:#000000;stroke-width:0.26458332"
       id="rect3872"
       width="201.83928"
       height="122.46429"
       x="4.9136906"
       y="4.4464283" />
    <path
       sodipodi:type="star"
       style="fill:#f2f2f2;stroke-width:0.26458332"
       id="path3876"
       sodipodi:sides="5"
       sodipodi:cx="15.119047"
       sodipodi:cy="12.761905"
       sodipodi:r1="8.7670927"
       sodipodi:r2="4.3835464"
       sodipodi:arg1="1.4410938"
       sodipodi:arg2="2.0694123"
       inkscape:flatsided="false"
       inkscape:rounded="0"
       inkscape:randomized="0"
       d="m 16.252976,21.455357 -3.230187,-4.843623 -5.8213035,-0.08498 3.6083775,-4.568851 -1.7180666,-5.5626478 5.4602866,2.0199182 4.75948,-3.3529312 -0.233735,5.8172298 4.659587,3.490422 -5.604742,1.575328 z"
       inkscape:transform-center-x="-0.350403"
       inkscape:transform-center-y="0.49689742" />
    <path
       sodipodi:type="star"
       style="fill:#ffd5d5;stroke-width:0.26458332"
       id="path3878"
       sodipodi:sides="5"
       sodipodi:cx="187.09822"
       sodipodi:cy="113.30357"
       sodipodi:r1="12.705848"
       sodipodi:r2="6.3529239"
       sodipodi:arg1="0.53021577"
       sodipodi:arg2="1.1585343"
       inkscape:flatsided="false"
       inkscape:rounded="0"
       inkscape:randomized="0"
       d="m 198.05953,119.72917 -8.4158,-0.60494 -5.26938,6.58979 -2.0253,-8.19084 -7.89558,-2.97513 7.1641,-4.45727 0.38964,-8.42852 6.45295,5.43609 8.1364,-2.23398 -3.17596,7.81696 z"
       inkscape:transform-center-x="0.84172549"
       inkscape:transform-center-y="0.38456414" />
    <rect
       style="fill:#aa0000;stroke-width:0.26458332"
       id="rect3883"
       width="60.098213"
       height="9.8273811"
       x="16.252975"
       y="21.455359" />
    <rect
       style="fill:#aa0000;stroke-width:0.26458332"
       id="rect3885"
       width="10.58326"
       height="53.677376"
       x="38.931545"
       y="30.526787" />
    <rect
       style="fill:#aa0000;stroke-width:0.26458332"
       id="rect3890"
       width="10.961308"
       height="15.875"
       x="12.473214"
       y="66.434525" />
    <rect
       style="fill:#aa0000;stroke-width:0.26458332"
       id="rect3892"
       width="37.041664"
       height="12.473213"
       x="12.473214"
       y="82.309525"
       ry="8.5265128e-014" />
    <ellipse
       style="fill:#800000;stroke-width:0.26458332"
       id="path3894"
       cx="62.177082"
       cy="97.806541"
       rx="5.8586307"
       ry="9.0714283" />
    <rect
       style="fill:#d35f5f;stroke-width:0.26458332"
       id="rect3900"
       width="13.607142"
       height="18.898809"
       x="141.74107"
       y="35.818451"
       ry="0" />
    <rect
       style="fill:#d35f5f;stroke-width:0.26458332"
       id="rect3902"
       width="32.883934"
       height="10.961308"
       x="122.46429"
       y="24.857143" />
    <rect
       style="fill:#d35f5f;stroke-width:0.26458332"
       id="rect3907"
       width="9.8273697"
       height="48.002979"
       x="122.46429"
       y="24.857143" />
    <rect
       style="fill:#d35f5f;stroke-width:0.26458332"
       id="rect3909"
       width="9.827384"
       height="21.166666"
       x="122.46429"
       y="72.860123" />
    <rect
       style="fill:#d35f5f;stroke-width:0.26458332"
       id="rect3913"
       width="20.788685"
       height="11.717262"
       x="132.29167"
       y="82.309525" />
    <rect
       style="fill:#d35f5f;stroke-width:0.26458332"
       id="rect3915"
       width="11.339281"
       height="11.717262"
       x="141.74107"
       y="71.314331" />
    <ellipse
       style="fill:#e3dbdb;stroke-width:0.26458332"
       id="path3917"
       cx="161.01785"
       cy="90.058037"
       rx="7.9375019"
       ry="7.7485113" />
  </g>
</svg>
